<?xml version="1.0" encoding="UTF-8"?>
<svg version="1.1" xmlns="http://www.w3.org/2000/svg" width="64" height="56">
<path d="M0 0 C5.10195927 4.44471997 6.74685096 11.12360949 8.6015625 17.37109375 C11.97838889 28.03093087 16.31173734 35.36932017 25.7890625 41.55859375 C25.7890625 42.21859375 25.7890625 42.87859375 25.7890625 43.55859375 C19.06435858 42.76572473 14.74840408 40.08524109 9.7890625 35.55859375 C5.40067566 29.64947879 3.57765635 22.19815405 1.6628418 15.17993164 C0.42768621 10.84274816 -0.96709572 7.72604071 -4.2109375 4.55859375 C-6.58519033 3.50816636 -6.58519033 3.50816636 -9.1484375 3.18359375 C-10.39947266 2.95542969 -10.39947266 2.95542969 -11.67578125 2.72265625 C-14.38164364 2.54754651 -16.58786041 2.91103626 -19.2109375 3.55859375 C-19.2109375 4.21859375 -19.2109375 4.87859375 -19.2109375 5.55859375 C-16.2409375 5.55859375 -13.2709375 5.55859375 -10.2109375 5.55859375 C-10.2109375 6.54859375 -10.2109375 7.53859375 -10.2109375 8.55859375 C-10.8709375 9.21859375 -11.5309375 9.87859375 -12.2109375 10.55859375 C-11.2209375 11.21859375 -10.2309375 11.87859375 -9.2109375 12.55859375 C-9.5409375 13.54859375 -9.8709375 14.53859375 -10.2109375 15.55859375 C-11.2009375 15.55859375 -12.1909375 15.55859375 -13.2109375 15.55859375 C-12.8809375 16.21859375 -12.5509375 16.87859375 -12.2109375 17.55859375 C-11.54801258 22.29377172 -12.11569751 24.91619192 -14.8984375 28.68359375 C-16.8325949 31.06691567 -18.7690221 33.07947271 -21.0234375 35.18359375 C-23.60712274 37.98873772 -23.94942113 39.8101924 -24.2109375 43.55859375 C-25.2009375 43.55859375 -26.1909375 43.55859375 -27.2109375 43.55859375 C-28.05269156 40.26810061 -28.52840492 38.28690136 -27.1484375 35.12109375 C-25.55820083 33.01787751 -23.91719991 31.13009945 -22.1484375 29.18359375 C-19.13177384 25.73812753 -17.90853449 23.09297418 -17.2109375 18.55859375 C-17.8709375 17.56859375 -18.5309375 16.57859375 -19.2109375 15.55859375 C-19.8709375 15.88859375 -20.5309375 16.21859375 -21.2109375 16.55859375 C-21.5409375 17.54859375 -21.8709375 18.53859375 -22.2109375 19.55859375 C-24.0859375 19.24609375 -24.0859375 19.24609375 -26.2109375 18.55859375 C-28.2109375 15.55859375 -28.2109375 15.55859375 -28.0234375 12.55859375 C-27.14895098 9.32972045 -26.5192665 8.77814086 -24.2109375 6.55859375 C-23.7571875 5.38296875 -23.3034375 4.20734375 -22.8359375 2.99609375 C-21.2109375 -0.44140625 -21.2109375 -0.44140625 -19.1484375 -1.87890625 C-12.22742578 -3.20420637 -6.40472253 -3.06609057 0 0 Z " fill="#656263" transform="translate(38.2109375,9.44140625)"/>
<path d="M0 0 C1.32 0 2.64 0 4 0 C5.66796875 1.79296875 5.66796875 1.79296875 7.1875 4.1875 C7.95126953 5.35345703 7.95126953 5.35345703 8.73046875 6.54296875 C10.03115968 9.06030597 10.58861026 11.20948888 11 14 C11 11.36 11 8.72 11 6 C12.82065274 8.73097911 13.67457969 10.98116888 14.59716797 14.09033203 C17.84355181 24.93577811 22.37027386 32.71119925 32 39 C32 39.66 32 40.32 32 41 C25.27529608 40.20713098 20.95934158 37.52664734 16 33 C11.61161316 27.09088504 9.78859385 19.6395603 7.8737793 12.62133789 C6.33301055 7.21100995 3.92017378 3.92017378 0 0 Z " fill="#595657" transform="translate(32,12)"/>
<path d="M0 0 C1.98 0.99 3.96 1.98 6 3 C5.67 3.99 5.34 4.98 5 6 C4.01 6 3.02 6 2 6 C2.33 6.66 2.66 7.32 3 8 C3.66292492 12.73517797 3.09523999 15.35759817 0.3125 19.125 C-1.6216574 21.50832192 -3.5580846 23.52087896 -5.8125 25.625 C-8.39618524 28.43014397 -8.73848363 30.25159865 -9 34 C-9.99 34 -10.98 34 -12 34 C-12.84175406 30.70950686 -13.31746742 28.72830761 -11.9375 25.5625 C-10.34726333 23.45928376 -8.70626241 21.5715057 -6.9375 19.625 C-3.92083634 16.17953378 -2.69759699 13.53438043 -2 9 C-3.66924071 5.95865509 -3.66924071 5.95865509 -6 5 C-3.69 4.34 -1.38 3.68 1 3 C0.67 2.01 0.34 1.02 0 0 Z " fill="#F3E6E6" transform="translate(23,19)"/>
<path d="M0 0 C2.11501065 1.48253139 3.50197604 2.80746924 4.6328125 5.14453125 C4.3028125 6.13453125 3.9728125 7.12453125 3.6328125 8.14453125 C2.49348958 6.64713542 1.35416667 5.14973958 0.21484375 3.65234375 C-3.48366613 0.12734421 -7.63769549 -0.12990101 -12.5546875 -0.10546875 C-14.12283203 -0.11320313 -14.12283203 -0.11320313 -15.72265625 -0.12109375 C-18.52300271 -0.12158566 -18.52300271 -0.12158566 -20.3671875 2.14453125 C-20.6765625 3.13453125 -20.9859375 4.12453125 -21.3046875 5.14453125 C-22.3671875 8.14453125 -22.3671875 8.14453125 -25.3671875 10.14453125 C-25.0371875 12.45453125 -24.7071875 14.76453125 -24.3671875 17.14453125 C-23.7071875 16.81453125 -23.0471875 16.48453125 -22.3671875 16.14453125 C-22.3671875 17.13453125 -22.3671875 18.12453125 -22.3671875 19.14453125 C-24.2421875 18.83203125 -24.2421875 18.83203125 -26.3671875 18.14453125 C-28.3671875 15.14453125 -28.3671875 15.14453125 -28.1796875 12.14453125 C-27.30520098 8.91565795 -26.6755165 8.36407836 -24.3671875 6.14453125 C-23.9134375 4.96890625 -23.4596875 3.79328125 -22.9921875 2.58203125 C-21.3671875 -0.85546875 -21.3671875 -0.85546875 -19.3046875 -2.29296875 C-12.27195387 -3.63966242 -6.31947505 -3.62026607 0 0 Z " fill="#E8E7E7" transform="translate(38.3671875,9.85546875)"/>
<path d="M0 0 C1.32 0 2.64 0 4 0 C5.66796875 1.79296875 5.66796875 1.79296875 7.1875 4.1875 C7.95126953 5.35345703 7.95126953 5.35345703 8.73046875 6.54296875 C10.03115968 9.06030597 10.58861026 11.20948888 11 14 C11 11.36 11 8.72 11 6 C13.00293347 9.00440021 13.49271626 10.70993945 14.125 14.1875 C14.29257812 15.08855469 14.46015625 15.98960938 14.6328125 16.91796875 C14.75398438 17.60503906 14.87515625 18.29210937 15 19 C14.34 18.34 13.68 17.68 13 17 C14.01252239 22.99519835 15.41177077 27.09608672 19 32 C19 32.66 19 33.32 19 34 C16 33 16 33 14.7890625 31.27734375 C11.77632206 25.22153327 9.64796566 19.13446267 7.87548828 12.62280273 C6.331267 7.21270794 3.92112709 3.92112709 0 0 Z " fill="#C9C8C8" transform="translate(32,12)"/>
<path d="M0 0 C2.19921875 0.5546875 2.19921875 0.5546875 5.88671875 1.8671875 C5.68046875 2.4859375 5.47421875 3.1046875 5.26171875 3.7421875 C5.13796875 4.4434375 5.01421875 5.1446875 4.88671875 5.8671875 C5.54671875 6.5271875 6.20671875 7.1871875 6.88671875 7.8671875 C3.81054688 8.16015625 3.81054688 8.16015625 0.734375 8.453125 C0.12464844 8.58976562 -0.48507813 8.72640625 -1.11328125 8.8671875 C-1.44328125 9.5271875 -1.77328125 10.1871875 -2.11328125 10.8671875 C-2.77328125 10.8671875 -3.43328125 10.8671875 -4.11328125 10.8671875 C-4.44328125 11.5271875 -4.77328125 12.1871875 -5.11328125 12.8671875 C-7.2936622 9.59661607 -7.7457488 8.66199281 -7.11328125 4.8671875 C-3.64354714 -0.22898448 -3.64354714 -0.22898448 0 0 Z " fill="#2E2A2B" transform="translate(19.11328125,15.1328125)"/>
<path d="M0 0 C0.680625 0.680625 1.36125 1.36125 2.0625 2.0625 C2.51367188 2.51238281 2.96484375 2.96226563 3.4296875 3.42578125 C4.56501192 4.56392986 5.69449869 5.70791175 6.8203125 6.85546875 C7.43648438 7.48066406 8.05265625 8.10585938 8.6875 8.75 C9.26886719 9.34296875 9.85023437 9.9359375 10.44921875 10.546875 C11.95513974 12.09641804 11.95513974 12.09641804 14 13 C14 13.99 14 14.98 14 16 C8.13446852 15.17695029 3.91892523 12.404604 0 8 C-0.78163326 4.96853048 -0.4985796 3.15767081 0 0 Z " fill="#E4E4E4" transform="translate(0,24)"/>
<path d="M0 0 C0.99 0.33 1.98 0.66 3 1 C3.59875793 5.79006343 3.22389877 8.20838682 0.3125 12.125 C-2.28672252 15.28339332 -4.94200518 18.28178238 -8 21 C-8.66 21 -9.32 21 -10 21 C-10.33 21.99 -10.66 22.98 -11 24 C-10.8125 21.25 -10.8125 21.25 -10 18 C-8.34211215 16.65576661 -6.67423683 15.32381517 -5 14 C-2.12638138 9.59947511 -0.5252807 5.25280704 0 0 Z " fill="#C96468" transform="translate(23,26)"/>
<path d="M0 0 C0.33 0 0.66 0 1 0 C1.6875 3.0625 1.6875 3.0625 1 7 C-2.404511 9.81265821 -6.11194563 11.92342551 -10 14 C-10 10 -10 10 -8.06640625 7.9296875 C-7.24011719 7.25164063 -6.41382813 6.57359375 -5.5625 5.875 C-2.29997807 3.32258374 -2.29997807 3.32258374 0 0 Z " fill="#C8C7C8" transform="translate(63,23)"/>
<path d="M0 0 C2.5316553 2.5316553 5.0614892 5.06298894 7.5625 7.625 C9.88354633 9.99861757 9.88354633 9.99861757 12.3125 11.6875 C13.1478125 12.3371875 13.1478125 12.3371875 14 13 C14 13.66 14 14.32 14 15 C8.46153846 14.38461538 8.46153846 14.38461538 6.125 12.4375 C5.75375 11.963125 5.3825 11.48875 5 11 C5.99 11 6.98 11 8 11 C7.236875 10.2575 6.47375 9.515 5.6875 8.75 C0 2.93023256 0 2.93023256 0 0 Z " fill="#E0E0E0" transform="translate(50,38)"/>
<path d="M0 0 C3.22700655 0.23903752 4.26842632 1.2496989 6.6875 3.5 C9.70311254 7.29264153 9.8848388 11.28885985 10 16 C8 15 8 15 7.25390625 13.0390625 C6.7945447 11.43518997 6.3362041 9.83102466 5.87890625 8.2265625 C4.93501021 5.8353592 3.83413222 4.74727916 2 3 C2 2.34 2 1.68 2 1 C1.34 0.67 0.68 0.34 0 0 Z " fill="#3C393A" transform="translate(34,11)"/>
<path d="M0 0 C0 3 0 3 -1.4609375 4.82421875 C-2.09257812 5.43910156 -2.72421875 6.05398437 -3.375 6.6875 C-4.00148438 7.31011719 -4.62796875 7.93273438 -5.2734375 8.57421875 C-7 10 -7 10 -9 10 C-9.33 10.99 -9.66 11.98 -10 13 C-9.72995846 9.03939073 -9.51428214 7.46285393 -6.5 4.75 C-5.675 4.1725 -4.85 3.595 -4 3 C-3.67 2.34 -3.34 1.68 -3 1 C-2.01 0.67 -1.02 0.34 0 0 Z " fill="#CB6D71" transform="translate(22,37)"/>
<path d="M0 0 C1.7882302 2.68234531 2.85190382 4.95514077 4 7.9375 C5.20033981 11.04619256 6.46276424 14.04219369 8 17 C5 16 5 16 3.61328125 13.92578125 C-0.69379336 5.27282955 -0.69379336 5.27282955 0 0 Z " fill="#DCDCDC" transform="translate(43,29)"/>
<path d="M0 0 C5.10329727 -0.36308044 8.87463833 -0.58277658 13.5 1.8125 C16 4 16 4 18 7 C17.67 7.99 17.34 8.98 17 10 C16.278125 9.05125 15.55625 8.1025 14.8125 7.125 C10.69060242 2.21797908 6.21856514 1.7315959 0 1 C0 0.67 0 0.34 0 0 Z " fill="#D5D4D4" transform="translate(25,8)"/>
<path d="M0 0 C4.2742558 1.5830577 6.26531794 4.50568404 9 8 C5.23293356 7.47679633 2.72611199 6.72611199 0 4 C0 2.68 0 1.36 0 0 Z " fill="#8B898A" transform="translate(0,28)"/>
<path d="M0 0 C1.98 0.99 3.96 1.98 6 3 C5.67 3.99 5.34 4.98 5 6 C4.01 6 3.02 6 2 6 C1.67 6.66 1.34 7.32 1 8 C0.34 7.67 -0.32 7.34 -1 7 C-1 6.34 -1 5.68 -1 5 C-2.65 5.33 -4.3 5.66 -6 6 C-5.67 5.34 -5.34 4.68 -5 4 C-1.9375 3.375 -1.9375 3.375 1 3 C0.67 2.01 0.34 1.02 0 0 Z " fill="#D1CACA" transform="translate(23,19)"/>
<path d="M0 0 C0.99 0.495 0.99 0.495 2 1 C2 1.66 2 2.32 2 3 C2.66 3 3.32 3 4 3 C4.66 5.31 5.32 7.62 6 10 C4.68 10 3.36 10 2 10 C0.68373308 6.38026598 0 3.90432869 0 0 Z " fill="#696768" transform="translate(44,28)"/>
<path d="M0 0 C0.33 0.66 0.66 1.32 1 2 C3.97 2 6.94 2 10 2 C10 2.99 10 3.98 10 5 C8.68 5.33 7.36 5.66 6 6 C6 5.67 6 5.34 6 5 C4.02 4.34 2.04 3.68 0 3 C0 2.01 0 1.02 0 0 Z " fill="#CCCBCC" transform="translate(18,13)"/>
<path d="M0 0 C2.31 0.33 4.62 0.66 7 1 C7 1.99 7 2.98 7 4 C4.625 3.6875 4.625 3.6875 2 3 C1.34 2.01 0.68 1.02 0 0 Z " fill="#DEDDDE" transform="translate(7,36)"/>
<path d="M0 0 C0 3 0 3 -1.5 4.6875 C-1.995 5.120625 -2.49 5.55375 -3 6 C-3.99 5.67 -4.98 5.34 -6 5 C-3.375 1.125 -3.375 1.125 0 0 Z " fill="#CE777B" transform="translate(22,37)"/>
<path d="M0 0 C3.26954202 0.56371414 4.82575883 1.49962266 7 4 C6.67 4.99 6.34 5.98 6 7 C4.62437146 5.71034824 3.29233607 4.37310707 2 3 C2 2.34 2 1.68 2 1 C1.34 0.67 0.68 0.34 0 0 Z " fill="#2D2A2B" transform="translate(34,11)"/>
<path d="M0 0 C0.99 0 1.98 0 3 0 C3 0.99 3 1.98 3 3 C1.68 3 0.36 3 -1 3 C-0.67 2.01 -0.34 1.02 0 0 Z " fill="#F3D9DB" transform="translate(3,53)"/>
</svg>
