 <svg  version="1.0" xmlns="http://www.w3.org/2000/svg"  width="300.000000pt" height="95.000000pt" viewBox="0 0 300.000000 95.000000"  preserveAspectRatio="xMidYMid meet">  <g transform="translate(0.000000,95.000000) scale(0.050000,-0.050000)" fill="#000000" stroke="none"> <path d="M4290 1563 c-189 -50 -254 -155 -181 -295 62 -119 -75 -329 -379 -581 -157 -131 -93 -122 84 11 338 254 487 462 441 613 -73 236 482 213 1018 -43 294 -140 268 -91 -38 71 -351 187 -738 278 -945 224z"/> <path d="M1310 1429 c-237 -41 -626 -210 -780 -339 l-60 -50 70 29 c39 16 129 57 200 92 272 134 461 184 690 186 267 1 313 -28 297 -187 -11 -106 -7 -128 38 -195 105 -156 480 -486 551 -484 23 0 7 22 -46 63 -299 235 -473 497 -402 605 138 211 -143 352 -558 280z"/> <path d="M2660 1422 c-141 -29 -200 -87 -200 -196 0 -40 -20 -72 -70 -112 -83 -66 -97 -177 -32 -257 l39 -47 21 54 c33 87 127 123 277 108 138 -14 155 8 35 48 -85 28 -97 93 -20 112 86 21 55 48 -56 48 -110 0 -154 24 -154 82 0 88 318 133 476 67 154 -65 231 -175 304 -439 142 -518 280 -712 590 -830 80 -30 58 11 -35 67 -179 105 -360 349 -426 570 -158 534 -188 591 -356 671 -112 53 -283 76 -393 54z"/> <path d="M4831 1282 c10 -10 106 -54 211 -97 316 -131 716 -395 793 -523 26 -43 65 -57 65 -23 0 82 -339 360 -600 491 -220 111 -533 212 -469 152z"/> <path d="M960 1132 c-338 -117 -772 -407 -862 -576 -41 -76 -2 -57 114 55 187 181 398 313 733 458 107 47 188 91 181 98 -17 17 -17 17 -166 -35z"/> <path d="M2656 813 c12 -146 -47 -264 -210 -425 -126 -125 -160 -192 -136 -267 18 -57 50 -32 50 40 0 46 28 87 127 185 225 225 303 433 200 536 l-40 40 9 -109z"/> </g> </svg> 