<svg height="189.73666" viewBox="0 0 13.325128 4.7646219" width="527.046277" xmlns="http://www.w3.org/2000/svg"><g transform="translate(-121.98163 -222.66992)"><path d="m0 0h-1.964v-.051c0-.225-.076-.439-.166-.676 0 0-1.747-4.46-1.813-4.632-.072.17-2.055 4.823-2.055 4.823l-.033.075c-.059.133-.12.269-.12.41v.04l-.039.011h-2.133v-.099l.025-.012c.406-.148.465-.688.465-.997l-.001-4.666c0-.54-.058-1.144-.495-1.529l-.014-.013v-.089h1.892v.097l-.022.012c-.415.184-.45.653-.45 1.099v.137l.002.131s.002 4.239.002 4.595c.139-.333 2.039-4.845 2.039-4.845.278-.641.443-.944.993-1.361l.042-.033s2.296 5.871 2.436 6.235c0-.382-.001-5.16-.001-5.16 0-.344-.053-.678-.428-.797l-.028-.009v-.101h2.128v.093l-.017.013c-.381.266-.552.605-.552 1.103v5.468c0 .122.024.532.318.617l.028.009v.102" fill="#050100" transform="matrix(.35277777 0 0 -.35277777 127.32198 224.52448)"/><path d="m0 0c0 2.042 1.656 3.7 3.702 3.7 1.054 0 2.004-.442 2.678-1.152-.742 1.129-2.018 1.874-3.471 1.874-2.293 0-4.15-1.856-4.15-4.15 0-2.292 1.857-4.15 4.15-4.15.465 0 .911.081 1.329.22-.176-.026-.353-.043-.536-.043-2.046 0-3.702 1.656-3.702 3.701" fill="#dd4036" transform="matrix(.35277777 0 0 -.35277777 127.86491 225.93418)"/><path d="m0 0c-1.28.119-2.45-.529-3.07-1.561.576.664 1.45 1.055 2.392.968 1.553-.141 2.696-1.515 2.554-3.066-.142-1.553-1.515-2.696-3.068-2.554-.214.019-.422.064-.619.13.368-.196.78-.322 1.222-.364 1.781-.162 3.356 1.149 3.518 2.93.165 1.779-1.148 3.355-2.929 3.517" fill="#dd4036" transform="matrix(.35277777 0 0 -.35277777 129.26085 224.78871)"/><path d="m0 0c-.328-.299-.837-.439-1.394-.384 0 0-.77.07-.934.085v2.678c.066.004.741.042.741.042.631.035 1.222-.146 1.582-.486.268-.253.404-.578.404-.966 0-.403-.133-.731-.399-.969m-2.328 5.298c.064.006.711.076.711.076.376.037.753-.079 1.009-.31.214-.192.327-.455.327-.756 0-1.064-1.433-1.117-1.72-1.117h-.327zm2.295-2.249c.699.332 1.044.804 1.044 1.439 0 1.034-.885 1.653-2.365 1.653h-2.678v-.099l.026-.012c.483-.178.472-.84.466-1.324l-.002-.163v-4.198l.002-.15c.006-.494.013-1.168-.468-1.35l-.024-.01v-.1h2.062c.785-.003 1.595-.003 2.324.35.826.395 1.358 1.174 1.358 1.984 0 .967-.667 1.715-1.745 1.98" fill="#050100" transform="matrix(.35277777 0 0 -.35277777 131.72535 226.69088)"/><path d="m0 0h-2.156v-.099l.027-.012c.482-.178.473-.845.465-1.331l-.001-.169v-4.197l.001-.148c.005-.492.014-1.167-.465-1.339l-.027-.011v-.099h2.194v.099l-.026.011c-.479.182-.47.851-.466 1.339l.002.148v4.197l-.002.149c-.004.495-.013 1.17.466 1.353l.026.01v.099" fill="#050100" transform="matrix(.35277777 0 0 -.35277777 133.17492 224.52448)"/><path d="m0 0c0-1.295 1.145-1.805 2.157-2.26.86-.383 1.673-.748 1.673-1.525 0-.729-.902-1.119-1.552-1.119-.85 0-1.751.342-2.414.915l-.091.079.354-1.529.021-.006c.607-.224 1.28-.339 2.006-.339 1.666 0 3.024 1.052 3.024 2.345 0 1.133-1.145 1.655-2.154 2.115-.862.394-1.677.766-1.677 1.447 0 .72.753.974 1.398.974.635 0 1.311-.27 1.719-.688l.066-.07v1.382l-.025.01c-.524.163-1.087.246-1.671.246-1.309 0-2.834-.516-2.834-1.977" fill="#050100" transform="matrix(.35277777 0 0 -.35277777 133.34778 225.15948)"/><g fill="#234781"><path d="m0 0h-1.52v1.27h-.713v-3.253h.713v1.347h1.52v-1.347h.714v3.253h-.714" transform="matrix(.35277777 0 0 -.35277777 122.90167 223.25059)"/><path d="m0 0h1.333v-.945h-1.514v.759c.003.038-.005.105.027.145.033.042.088.04.154.041m-.734.45c-.15-.152-.156-.377-.16-.507v-2.561h.713v1.038h1.514v-1.038h.714v3.254h-2.223c-.211-.002-.41-.033-.558-.186" transform="matrix(.35277777 0 0 -.35277777 128.6262 223.02658)"/><path d="m0 0h-2.228v-3.253h.714v2.617h1.337c.067-.002.122.002.155-.04.031-.041.026-.108.027-.145v-2.432h.713v2.561c-.004.129-.009.354-.159.506-.15.154-.347.184-.559.186" transform="matrix(.35277777 0 0 -.35277777 126.58714 222.80257)"/><path d="m0 0c-.002-.039.004-.106-.027-.145-.034-.044-.089-.039-.155-.04h-1.336v2.617h-.715v-3.254h2.228c.212.002.411.034.559.186.15.152.155.375.159.507v2.561h-.713" transform="matrix(.35277777 0 0 -.35277777 125.32667 223.66017)"/><path d="m0 0c-.003-.039.004-.106-.027-.145-.033-.043-.088-.039-.155-.041h-1.339v1.981h1.339c.067-.001.122.003.155-.04.031-.04.024-.108.027-.145zm.711 1.74c-.003.13-.01.352-.159.506-.149.153-.347.184-.559.185h-2.226v-3.253h2.226c.212.002.41.033.559.186.149.152.156.376.159.507" transform="matrix(.35277777 0 0 -.35277777 127.8515 223.66017)"/><path d="m0 0-.866 1.424h-.848l1.332-2.052v-1.201h.763v1.201l1.33 2.052h-.846" transform="matrix(.35277777 0 0 -.35277777 123.84641 223.30492)"/><path d="m129.60093 223.95015h.2681v-1.14758h-.2681z"/></g></g></svg>